<svg width="26" height="26" viewBox="0 0 26 26" fill="none" xmlns="http://www.w3.org/2000/svg">
<path d="M1 13.2447C1 10.4986 1 9.12553 1.62304 7.98729C2.24608 6.84905 3.38433 6.14262 5.66084 4.72975L8.06084 3.24024C10.4673 1.74675 11.6705 1 13 1C14.3295 1 15.5327 1.74675 17.9392 3.24024L20.3392 4.72975C22.6157 6.14262 23.7539 6.84905 24.377 7.98729C25 9.12553 25 10.4986 25 13.2447V15.0699C25 19.751 25 22.0916 23.5941 23.5458C22.1882 25 19.9255 25 15.4 25H10.6C6.07452 25 3.81178 25 2.40589 23.5458C1 22.0916 1 19.751 1 15.0699V13.2447Z" stroke="#1C274C" stroke-width="2"/>
</svg>
