<svg width="24" height="24" viewBox="0 0 24 24" fill="none" xmlns="http://www.w3.org/2000/svg">
<path d="M16.9998 2.0828C18.3248 2.08668 19.5943 2.60432 20.5312 3.52267C21.4681 4.44101 21.9962 5.68545 22.0002 6.98419V16.7859C21.9962 18.0846 21.4681 19.3291 20.5312 20.2474C19.5943 21.1658 18.3248 21.6834 16.9998 21.6873H7.00018C5.67522 21.6834 4.40566 21.1658 3.46876 20.2474C2.53187 19.3291 2.00378 18.0846 1.99982 16.7859V6.98419C2.00378 5.68545 2.53187 4.44101 3.46876 3.52267C4.40566 2.60432 5.67522 2.08668 7.00018 2.0828H16.9998ZM16.9998 0.122559H7.00018C3.15 0.122559 0 3.21021 0 6.98419V16.7859C0 20.5599 3.15 23.6475 7.00018 23.6475H16.9998C20.85 23.6475 24 20.5599 24 16.7859V6.98419C24 3.21021 20.85 0.122559 16.9998 0.122559Z" fill="white"/>
<path d="M18.5037 6.99257C18.2061 6.99257 17.9153 6.90609 17.6679 6.74407C17.4205 6.58204 17.2277 6.35175 17.1139 6.08232C17 5.81289 16.9702 5.51641 17.0283 5.23038C17.0863 4.94435 17.2296 4.68162 17.44 4.4754C17.6503 4.26919 17.9184 4.12875 18.2102 4.07186C18.502 4.01496 18.8045 4.04416 19.0793 4.15577C19.3542 4.26737 19.5891 4.45636 19.7544 4.69884C19.9197 4.94133 20.008 5.22641 20.008 5.51805C20.0084 5.7118 19.9698 5.90373 19.8943 6.08281C19.8189 6.2619 19.7081 6.42461 19.5683 6.56162C19.4285 6.69862 19.2625 6.80722 19.0798 6.88117C18.8971 6.95513 18.7013 6.99298 18.5037 6.99257Z" fill="white"/>
<path d="M11.9998 7.96226C12.7909 7.96226 13.5643 8.19223 14.2221 8.62307C14.88 9.05392 15.3927 9.66629 15.6954 10.3828C15.9982 11.0992 16.0774 11.8876 15.9231 12.6482C15.7687 13.4088 15.3877 14.1075 14.8283 14.6558C14.2689 15.2042 13.5561 15.5776 12.7801 15.7289C12.0042 15.8802 11.1999 15.8026 10.469 15.5058C9.73802 15.209 9.11327 14.7065 8.67373 14.0617C8.23418 13.4169 7.99958 12.6588 7.99958 11.8833C8.00071 10.8437 8.42252 9.84702 9.17245 9.11193C9.92239 8.37684 10.9392 7.96338 11.9998 7.96226ZM11.9998 6.00202C10.8131 6.00202 9.65303 6.34695 8.66633 6.99319C7.67964 7.63943 6.9106 8.55796 6.45648 9.63261C6.00235 10.7073 5.88353 11.8898 6.11504 13.0306C6.34655 14.1715 6.918 15.2194 7.75711 16.0419C8.59623 16.8644 9.66533 17.4246 10.8292 17.6515C11.9931 17.8784 13.1995 17.762 14.2959 17.3168C15.3922 16.8717 16.3293 16.1179 16.9886 15.1507C17.6479 14.1835 17.9998 13.0465 17.9998 11.8833C17.9998 10.3235 17.3676 8.82755 16.2424 7.7246C15.1172 6.62165 13.5911 6.00202 11.9998 6.00202Z" fill="white"/>
</svg>
