<svg width="45" height="45" viewBox="0 0 45 45" fill="none" xmlns="http://www.w3.org/2000/svg">
<path d="M7.5 9L7.89737 9.13246C9.87742 9.79247 10.8675 10.1225 11.4337 10.9081C12 11.6938 12 12.7374 12 14.8246V18.75C12 22.9926 12 25.114 13.318 26.432C14.636 27.75 16.7574 27.75 21 27.75H33" stroke="#1C274C" stroke-width="1.5" stroke-linecap="round"/>
<path d="M15.75 31.5C16.9926 31.5 18 32.5074 18 33.75C18 34.9926 16.9926 36 15.75 36C14.5074 36 13.5 34.9926 13.5 33.75C13.5 32.5074 14.5074 31.5 15.75 31.5Z" stroke="#1C274C" stroke-width="1.5"/>
<path d="M29.25 31.5001C30.4926 31.5001 31.5 32.5075 31.5 33.7501C31.5 34.9928 30.4926 36.0001 29.25 36.0001C28.0074 36.0001 27 34.9928 27 33.7501C27 32.5075 28.0074 31.5001 29.25 31.5001Z" stroke="#1C274C" stroke-width="1.5"/>
<path d="M12 13.5H29.1756C32.258 13.5 33.7993 13.5 34.4662 14.5114C35.1331 15.5228 34.526 16.9394 33.3117 19.7726L32.6689 21.2726C32.102 22.5954 31.8185 23.2568 31.255 23.6284C30.6914 24 29.9718 24 28.5327 24H12" stroke="#1C274C" stroke-width="1.5"/>
</svg>
