<svg width="26" height="26" viewBox="0 0 26 26" fill="none" xmlns="http://www.w3.org/2000/svg">
<path d="M9.47504 5.02695C10.9798 2.34232 11.7322 1 12.8571 1C13.9819 1 14.7343 2.34232 16.2391 5.02695L16.6284 5.72149C17.056 6.48438 17.2698 6.86582 17.6032 7.11751C17.9365 7.36919 18.3517 7.46261 19.1821 7.64946L19.9381 7.81957C22.8602 8.4771 24.3212 8.80586 24.6688 9.91754C25.0164 11.0292 24.0204 12.1876 22.0283 14.5043L21.5129 15.1037C20.9468 15.762 20.6638 16.0912 20.5364 16.4984C20.4091 16.9056 20.4519 17.3448 20.5375 18.2232L20.6154 19.0229C20.9166 22.1139 21.0672 23.6594 20.1571 24.3464C19.2471 25.0335 17.8791 24.4071 15.1432 23.1542L14.4353 22.8301C13.6579 22.4741 13.2691 22.2961 12.8571 22.2961C12.445 22.2961 12.0563 22.4741 11.2788 22.8301L10.571 23.1542C7.83502 24.4071 6.46705 25.0335 5.55701 24.3464C4.64697 23.6594 4.79756 22.1139 5.09874 19.0229L5.17666 18.2232C5.26224 17.3448 5.30503 16.9056 5.1777 16.4984C5.05037 16.0912 4.76732 15.762 4.20123 15.1037L3.68586 14.5043C1.69377 12.1876 0.697724 11.0292 1.04533 9.91754C1.39293 8.80586 2.85397 8.4771 5.77606 7.81957L6.53204 7.64946C7.36241 7.46261 7.77759 7.36919 8.11096 7.11751C8.44432 6.86582 8.65813 6.48438 9.08573 5.72149L9.47504 5.02695Z" fill="#FFE600"/>
<path d="M9.47504 5.02695C10.9798 2.34232 11.7322 1 12.8571 1C13.9819 1 14.7343 2.34232 16.2391 5.02695L16.6284 5.72149C17.056 6.48438 17.2698 6.86582 17.6032 7.11751C17.9365 7.36919 18.3517 7.46261 19.1821 7.64946L19.9381 7.81957C22.8602 8.4771 24.3212 8.80586 24.6688 9.91754C25.0164 11.0292 24.0204 12.1876 22.0283 14.5043L21.5129 15.1037C20.9468 15.762 20.6638 16.0912 20.5364 16.4984C20.4091 16.9056 20.4519 17.3448 20.5375 18.2232L20.6154 19.0229C20.9166 22.1139 21.0672 23.6594 20.1571 24.3464C19.2471 25.0335 17.8791 24.4071 15.1432 23.1542L14.4353 22.8301C13.6579 22.4741 13.2691 22.2961 12.8571 22.2961C12.445 22.2961 12.0563 22.4741 11.2788 22.8301L10.571 23.1542C7.83502 24.4071 6.46705 25.0335 5.55701 24.3464C4.64697 23.6594 4.79756 22.1139 5.09874 19.0229L5.17666 18.2232C5.26224 17.3448 5.30503 16.9056 5.1777 16.4984C5.05037 16.0912 4.76732 15.762 4.20123 15.1037L3.68586 14.5043C1.69377 12.1876 0.697724 11.0292 1.04533 9.91754C1.39293 8.80586 2.85397 8.4771 5.77606 7.81957L6.53204 7.64946C7.36241 7.46261 7.77759 7.36919 8.11096 7.11751C8.44432 6.86582 8.65813 6.48438 9.08573 5.72149L9.47504 5.02695Z" stroke="#FFE600" stroke-width="1.5"/>
<path d="M9.47504 5.02695C10.9798 2.34232 11.7322 1 12.8571 1C13.9819 1 14.7343 2.34232 16.2391 5.02695L16.6284 5.72149C17.056 6.48438 17.2698 6.86582 17.6032 7.11751C17.9365 7.36919 18.3517 7.46261 19.1821 7.64946L19.9381 7.81957C22.8602 8.4771 24.3212 8.80586 24.6688 9.91754C25.0164 11.0292 24.0204 12.1876 22.0283 14.5043L21.5129 15.1037C20.9468 15.762 20.6638 16.0912 20.5364 16.4984C20.4091 16.9056 20.4519 17.3448 20.5375 18.2232L20.6154 19.0229C20.9166 22.1139 21.0672 23.6594 20.1571 24.3464C19.2471 25.0335 17.8791 24.4071 15.1432 23.1542L14.4353 22.8301C13.6579 22.4741 13.2691 22.2961 12.8571 22.2961C12.445 22.2961 12.0563 22.4741 11.2788 22.8301L10.571 23.1542C7.83502 24.4071 6.46705 25.0335 5.55701 24.3464C4.64697 23.6594 4.79756 22.1139 5.09874 19.0229L5.17666 18.2232C5.26224 17.3448 5.30503 16.9056 5.1777 16.4984C5.05037 16.0912 4.76732 15.762 4.20123 15.1037L3.68586 14.5043C1.69377 12.1876 0.697724 11.0292 1.04533 9.91754C1.39293 8.80586 2.85397 8.4771 5.77606 7.81957L6.53204 7.64946C7.36241 7.46261 7.77759 7.36919 8.11096 7.11751C8.44432 6.86582 8.65813 6.48438 9.08573 5.72149L9.47504 5.02695Z" stroke="#FFE600" stroke-width="1.5"/>
</svg>
