<svg width="30" height="32" viewBox="0 0 30 32" fill="none" xmlns="http://www.w3.org/2000/svg">
<path d="M4.00031 29.2426L3.46998 29.773H3.46998L4.00031 29.2426ZM25.9856 29.2426L26.5159 29.773L25.9856 29.2426ZM10.2653 10.7761L11.0116 10.8507L10.2653 10.7761ZM19.7206 10.7761L20.4668 10.7014L19.7206 10.7761ZM1.09067 10.5114L0.355233 10.3643L1.09067 10.5114ZM10.1562 11.8679L10.9024 11.9425L10.1562 11.8679ZM5.49234 1.16012L5.69063 1.88343L5.49234 1.16012ZM1.98755 6.02699L2.72299 6.17408L1.98755 6.02699ZM2.65979 3.48226L3.33017 3.81855L2.65979 3.48226ZM28.8952 10.5114L29.6307 10.3643L28.8952 10.5114ZM19.8297 11.8679L20.576 11.7933L19.8297 11.8679ZM24.4936 1.16012L24.2953 1.88343L24.4936 1.16012ZM27.9983 6.02699L27.2629 6.17408L27.9983 6.02699ZM27.3261 3.48226L26.6557 3.81855L27.3261 3.48226ZM10.4929 30.25C10.4929 30.6642 10.8287 31 11.2429 31C11.6572 31 11.9929 30.6642 11.9929 30.25H10.4929ZM17.9929 30.25C17.9929 30.6642 18.3287 31 18.7429 31C19.1572 31 19.4929 30.6642 19.4929 30.25H17.9929ZM17.6179 22.3014L17.9929 21.6519L17.6179 22.3014ZM18.4415 23.125L17.792 23.5L18.4415 23.125ZM11.5444 23.125L12.1939 23.5L11.5444 23.125ZM12.3679 22.3014L12.7429 22.951L12.3679 22.3014ZM15.7429 30.25H14.2429V31.75H15.7429V30.25ZM2.99295 19V14.5H1.49295V19H2.99295ZM26.9929 14.5V19H28.4929V14.5H26.9929ZM14.2429 30.25C11.3933 30.25 9.33154 30.2484 7.75925 30.037C6.20854 29.8285 5.24674 29.4284 4.53064 28.7123L3.46998 29.773C4.51123 30.8142 5.84233 31.2928 7.55938 31.5236C9.25486 31.7516 11.4357 31.75 14.2429 31.75V30.25ZM1.49295 19C1.49295 21.8072 1.49135 23.9881 1.71931 25.6836C1.95016 27.4006 2.42872 28.7317 3.46998 29.773L4.53064 28.7123C3.81453 27.9962 3.41442 27.0344 3.20593 25.4837C2.99454 23.9114 2.99295 21.8496 2.99295 19H1.49295ZM15.7429 31.75C18.5502 31.75 20.731 31.7516 22.4265 31.5236C24.1436 31.2928 25.4747 30.8142 26.5159 29.773L25.4553 28.7123C24.7392 29.4284 23.7774 29.8285 22.2266 30.037C20.6544 30.2484 18.5926 30.25 15.7429 30.25V31.75ZM26.9929 19C26.9929 21.8496 26.9914 23.9114 26.78 25.4837C26.5715 27.0344 26.1714 27.9962 25.4553 28.7123L26.5159 29.773C27.5572 28.7317 28.0357 27.4006 28.2666 25.6836C28.4945 23.9881 28.4929 21.8072 28.4929 19H26.9929ZM11.2429 1.75H18.7429V0.25H11.2429V1.75ZM17.9967 1.07463L18.9743 10.8507L20.4668 10.7014L19.4892 0.925372L17.9967 1.07463ZM11.0116 10.8507L11.9892 1.07463L10.4967 0.925372L9.51906 10.7014L11.0116 10.8507ZM14.9929 15.25C12.6258 15.25 10.7761 13.2061 11.0116 10.8507L9.51906 10.7014C9.19522 13.9399 11.7383 16.75 14.9929 16.75V15.25ZM18.9743 10.8507C19.2098 13.2061 17.3601 15.25 14.9929 15.25V16.75C18.2476 16.75 20.7907 13.9399 20.4668 10.7014L18.9743 10.8507ZM8.11949 1.75H11.2429V0.25H8.11949V1.75ZM10.4967 0.925372L9.40988 11.7933L10.9024 11.9425L11.9892 1.07463L10.4967 0.925372ZM1.8261 10.6585L2.72299 6.17408L1.25211 5.8799L0.355233 10.3643L1.8261 10.6585ZM5.59024 15.25C3.16786 15.25 1.35103 13.0338 1.8261 10.6585L0.355233 10.3643C-0.305474 13.6678 2.22129 16.75 5.59024 16.75V15.25ZM9.40988 11.7933C9.21364 13.7556 7.56237 15.25 5.59024 15.25V16.75C8.333 16.75 10.6295 14.6717 10.9024 11.9425L9.40988 11.7933ZM8.11949 0.25C6.80387 0.25 5.99941 0.243443 5.29405 0.436808L5.69063 1.88343C6.15345 1.75656 6.71102 1.75 8.11949 1.75V0.25ZM2.72299 6.17408C2.99921 4.79296 3.11499 4.2475 3.33017 3.81855L1.98941 3.14597C1.66147 3.7997 1.51013 4.58983 1.25211 5.8799L2.72299 6.17408ZM5.29405 0.436808C3.85819 0.830431 2.65698 1.81519 1.98941 3.14597L3.33017 3.81855C3.80701 2.86799 4.66501 2.16459 5.69063 1.88343L5.29405 0.436808ZM21.8664 0.25H18.7429V1.75H21.8664V0.25ZM17.9967 1.07463L19.0835 11.9425L20.576 11.7933L19.4892 0.925372L17.9967 1.07463ZM29.6307 10.3643L28.7338 5.8799L27.2629 6.17408L28.1598 10.6585L29.6307 10.3643ZM24.3957 16.75C27.7646 16.75 30.2914 13.6678 29.6307 10.3643L28.1598 10.6585C28.6349 13.0338 26.818 15.25 24.3957 15.25V16.75ZM19.0835 11.9425C19.3564 14.6717 21.6529 16.75 24.3957 16.75V15.25C22.4235 15.25 20.7723 13.7556 20.576 11.7933L19.0835 11.9425ZM21.8664 1.75C23.2749 1.75 23.8324 1.75656 24.2953 1.88343L24.6918 0.436808C23.9865 0.243443 23.182 0.25 21.8664 0.25V1.75ZM28.7338 5.8799C28.4758 4.58984 28.3244 3.7997 27.9965 3.14597L26.6557 3.81855C26.8709 4.2475 26.9867 4.79296 27.2629 6.17408L28.7338 5.8799ZM24.2953 1.88343C25.3209 2.16459 26.1789 2.86799 26.6557 3.81855L27.9965 3.14597C27.3289 1.81519 26.1277 0.830431 24.6918 0.436808L24.2953 1.88343ZM11.9929 30.25V25.75H10.4929V30.25H11.9929ZM17.9929 25.75V30.25H19.4929V25.75H17.9929ZM14.9929 22.75C15.7077 22.75 16.1936 22.7507 16.5677 22.7846C16.9314 22.8176 17.1151 22.8771 17.2429 22.951L17.9929 21.6519C17.5987 21.4243 17.1708 21.3331 16.7031 21.2907C16.2456 21.2493 15.6801 21.25 14.9929 21.25V22.75ZM19.4929 25.75C19.4929 25.0628 19.4937 24.4973 19.4522 24.0399C19.4098 23.5721 19.3186 23.1442 19.091 22.75L17.792 23.5C17.8658 23.6279 17.9254 23.8115 17.9583 24.1753C17.9922 24.5493 17.9929 25.0352 17.9929 25.75H19.4929ZM17.2429 22.951C17.471 23.0826 17.6603 23.272 17.792 23.5L19.091 22.75C18.8277 22.2939 18.449 21.9152 17.9929 21.6519L17.2429 22.951ZM11.9929 25.75C11.9929 25.0352 11.9937 24.5493 12.0276 24.1753C12.0605 23.8115 12.1201 23.6279 12.1939 23.5L10.8949 22.75C10.6673 23.1442 10.5761 23.5721 10.5337 24.0399C10.4922 24.4973 10.4929 25.0628 10.4929 25.75H11.9929ZM14.9929 21.25C14.3058 21.25 13.7403 21.2493 13.2828 21.2907C12.8151 21.3331 12.3872 21.4243 11.9929 21.6519L12.7429 22.951C12.8708 22.8771 13.0545 22.8176 13.4182 22.7846C13.7923 22.7507 14.2782 22.75 14.9929 22.75V21.25ZM12.1939 23.5C12.3256 23.272 12.5149 23.0826 12.7429 22.951L11.9929 21.6519C11.5369 21.9152 11.1582 22.2939 10.8949 22.75L12.1939 23.5Z" fill="#1C274C"/>
</svg>
